<?xml version="1.0" standalone="no"?>
<!DOCTYPE svg PUBLIC "-//W3C//DTD SVG 20010904//EN"
 "http://www.w3.org/TR/2001/REC-SVG-20010904/DTD/svg10.dtd">
<svg version="1.0" xmlns="http://www.w3.org/2000/svg"
 width="300.000000pt" height="300.000000pt" viewBox="0 0 300.000000 300.000000"
 preserveAspectRatio="xMidYMid meet">
<g transform="translate(0.000000,300.000000) scale(0.100000,-0.100000)"
fill="#ffffff" stroke="none">
<path d="M1125 2792 c-5 -5 -27 -15 -48 -22 -23 -7 -42 -21 -47 -33 -6 -17
-42 -35 -152 -75 l-144 -53 -2 -1083 -1 -1083 127 -73 c70 -40 154 -91 187
-112 l60 -40 80 6 c144 12 536 56 720 81 314 42 350 48 363 58 9 7 12 108 12
443 l0 434 -35 0 c-19 0 -35 5 -35 11 0 7 9 9 24 5 14 -3 28 0 35 8 8 9 10
212 9 732 l-3 719 -190 17 c-609 53 -945 74 -960 60z m325 -22 c102 -6 209
-13 238 -16 l52 -5 0 -55 c0 -34 4 -53 10 -49 6 3 10 28 10 55 l0 50 43 -5
c23 -3 122 -12 221 -20 98 -8 190 -21 205 -28 l26 -12 2 -445 c0 -245 2 -561
3 -704 1 -142 0 -260 -2 -262 -3 -2 -80 -8 -174 -14 -93 -5 -204 -12 -246 -15
l-78 -5 0 65 c0 58 -2 65 -20 65 -16 0 -20 7 -20 36 0 31 -2 35 -21 29 -13 -4
-19 -3 -15 3 3 5 6 264 6 576 1 467 3 566 14 566 19 0 26 68 8 75 -24 9 -28 6
-45 -31 -13 -26 -15 -40 -7 -49 7 -9 10 -193 10 -591 -1 -365 2 -589 9 -605 8
-21 14 -26 35 -22 26 5 26 4 26 -54 l0 -59 -292 -13 c-161 -7 -294 -17 -296
-22 -6 -14 -19 -11 -26 7 -3 8 -2 12 4 9 7 -4 10 262 10 773 0 428 3 782 7
786 4 3 32 4 62 1 31 -3 139 -9 241 -15z m-356 -137 l-1 -108 6 104 c4 72 10
106 19 109 10 3 12 -34 12 -178 -2 -163 -8 -206 -23 -145 -8 35 -10 -217 -7
-1203 1 -612 -1 -962 -7 -962 -6 0 -18 9 -28 21 -17 18 -168 112 -237 148 -15
8 -37 24 -48 36 -22 23 -22 24 -24 881 -2 1007 2 1240 24 1254 8 5 65 28 127
51 73 27 121 51 139 70 15 16 33 29 38 29 7 0 11 -38 10 -107z m1171 -1832 c0
-273 -4 -425 -10 -427 -41 -15 -727 -100 -1042 -129 l-73 -7 0 461 c0 403 -2
461 -15 461 -8 0 -15 4 -15 8 0 4 147 14 328 21 180 8 417 19 527 26 110 7
223 12 250 11 l50 -1 0 -424z m-1144 -196 c0 -186 -3 -340 -6 -343 -3 -3 -5
151 -5 343 0 192 3 346 6 343 3 -3 5 -158 5 -343z"/>
<path d="M1767 2644 c-4 -4 -7 -289 -7 -634 0 -687 -1 -672 56 -653 l29 10 3
633 c1 348 0 631 -3 629 -3 -3 -5 -281 -5 -617 0 -337 -3 -619 -6 -627 -11
-27 -24 -16 -24 19 0 28 -3 33 -17 30 -17 -5 -18 25 -17 533 0 296 1 548 2
560 1 12 8 28 16 36 8 8 17 27 19 43 3 16 4 -238 3 -563 -2 -334 0 -590 5
-587 5 3 9 270 9 595 0 502 -2 589 -14 589 -8 0 -21 2 -28 5 -8 3 -17 2 -21
-1z"/>
<path d="M1725 2000 c0 -305 1 -430 2 -277 2 152 2 402 0 555 -1 152 -2 27 -2
-278z"/>
<path d="M1804 2355 c0 -104 2 -146 3 -92 2 54 2 139 0 190 -1 51 -3 7 -3 -98z"/>
<path d="M1745 1965 c0 -314 1 -440 2 -282 2 159 2 415 0 570 -1 155 -2 26 -2
-288z"/>
<path d="M1153 1740 c0 -47 2 -66 4 -42 2 23 2 61 0 85 -2 23 -4 4 -4 -43z"/>
<path d="M2040 1099 c-147 -17 -433 -37 -530 -37 -238 -1 -274 -3 -256 -14 24
-14 244 -6 636 23 287 21 365 30 325 40 -11 3 -90 -3 -175 -12z"/>
<path d="M2220 1083 c-8 -3 -25 -9 -37 -15 -12 -6 -37 -8 -55 -4 -18 4 -193
-3 -388 -16 -230 -15 -341 -25 -315 -30 22 -4 1 -5 -47 -2 -58 3 -88 1 -88 -5
0 -21 -41 -11 -50 12 -6 15 -9 17 -9 6 -2 -34 25 -41 116 -35 49 3 266 18 483
32 217 14 399 29 404 34 12 12 3 28 -14 23z"/>
</g>
</svg>
