<?xml version="1.0" standalone="no"?>
<!DOCTYPE svg PUBLIC "-//W3C//DTD SVG 20010904//EN"
 "http://www.w3.org/TR/2001/REC-SVG-20010904/DTD/svg10.dtd">
<svg version="1.0" xmlns="http://www.w3.org/2000/svg"
 width="130.000000pt" height="185.000000pt" viewBox="0 0 130.000000 185.000000"
 preserveAspectRatio="xMidYMid meet">

<g transform="translate(0.000000,185.000000) scale(0.100000,-0.100000)"
fill="#000000" stroke="none">
<path d="M226 1791 c-3 -5 1 -15 10 -22 28 -23 101 -123 109 -149 4 -14 13
-31 19 -39 7 -9 11 -62 10 -145 0 -124 -11 -190 -47 -276 -3 -8 -16 -55 -28
-105 -18 -77 -21 -109 -16 -220 5 -127 25 -213 70 -304 14 -29 94 -111 109
-111 5 0 30 -12 56 -27 92 -54 135 -64 316 -70 141 -5 168 -4 164 8 -4 11 -40
15 -159 20 -165 7 -223 20 -311 72 -26 15 -51 27 -56 27 -12 0 -76 66 -90 92
-69 141 -91 341 -53 494 12 49 26 98 30 109 5 11 19 57 31 102 19 71 22 100
18 205 -4 88 -10 132 -21 153 -9 17 -17 34 -17 38 0 5 -21 36 -47 70 -61 82
-84 100 -97 78z"/>
<path d="M935 600 c-3 -5 3 -15 15 -22 11 -7 20 -16 20 -20 0 -10 65 -103 96
-138 12 -14 39 -62 61 -108 l39 -82 -79 0 c-95 0 -151 -15 -192 -49 -17 -14
-42 -33 -55 -43 -19 -12 -22 -19 -13 -28 9 -9 22 -5 60 21 26 18 50 36 53 40
11 16 91 29 178 29 50 0 92 3 92 7 0 18 -101 211 -119 228 -12 10 -21 22 -21
27 0 5 -16 29 -35 52 -19 24 -35 48 -35 54 0 11 -38 42 -52 42 -4 0 -10 -4
-13 -10z"/>
</g>
</svg>
